<?xml version="1.0" encoding="UTF-8" standalone="no"?>
<!DOCTYPE svg PUBLIC "-//W3C//DTD SVG 1.1//EN" "http://www.w3.org/Graphics/SVG/1.1/DTD/svg11.dtd">
<svg width="100%" height="100%" viewBox="0 0 11 9" version="1.1" xmlns="http://www.w3.org/2000/svg" xmlns:xlink="http://www.w3.org/1999/xlink" xml:space="preserve" xmlns:serif="http://www.serif.com/" style="fill-rule:evenodd;clip-rule:evenodd;stroke-linecap:round;stroke-linejoin:round;stroke-miterlimit:1.5;">
    <g transform="matrix(1,0,0,1,-2021.98,-319.111)">
        <g transform="matrix(1.30774,0,0,1.30774,1674.78,25.7087)">
            <g transform="matrix(0.66376,0,0,0.66376,90.6377,76.9813)">
                <g transform="matrix(0.540444,0,0,0.540444,-827.608,50.766)">
                    <path d="M2032.77,318.253C2032.77,317.782 2032.39,317.4 2031.91,317.4L2020.14,317.4C2019.67,317.4 2019.29,317.782 2019.29,318.253L2019.29,324.78C2019.29,325.252 2019.67,325.634 2020.14,325.634L2031.91,325.634C2032.39,325.634 2032.77,325.252 2032.77,324.78L2032.77,318.253Z" style="fill:none;stroke:white;stroke-width:1px;"/>
                </g>
                <g transform="matrix(0.540444,0,0,0.540444,-825.393,52.9809)">
                    <path d="M2032.77,318.253C2032.77,317.782 2032.39,317.4 2031.91,317.4L2020.14,317.4C2019.67,317.4 2019.29,317.782 2019.29,318.253L2019.29,324.78C2019.29,325.252 2019.67,325.634 2020.14,325.634L2031.91,325.634C2032.39,325.634 2032.77,325.252 2032.77,324.78L2032.77,318.253Z" style="fill:rgb(0,53,41);stroke:white;stroke-width:1px;"/>
                </g>
                <g transform="matrix(0.540444,0,0,0.540444,-823.178,55.1959)">
                    <path d="M2032.77,318.253C2032.77,317.782 2032.39,317.4 2031.91,317.4L2020.14,317.4C2019.67,317.4 2019.29,317.782 2019.29,318.253L2019.29,324.78C2019.29,325.252 2019.67,325.634 2020.14,325.634L2031.91,325.634C2032.39,325.634 2032.77,325.252 2032.77,324.78L2032.77,318.253Z" style="fill:rgb(0,53,41);stroke:white;stroke-width:1px;"/>
                </g>
            </g>
        </g>
    </g>
</svg>
